<svg id="works-title" data-name="ワークスタイトル" xmlns="http://www.w3.org/2000/svg" viewBox="0 0 658 137"><defs><style>.cls-1{fill:none;stroke:#000;stroke-miterlimit:10;stroke-width:2px;}</style></defs><title>名称未設定-1</title><polyline id="W" class="cls-1" points="8.5 10.5 47.5 129.5 88.5 10.5 129.5 129.5 168.5 10.5"/><circle id="O" class="cls-1" cx="256" cy="69" r="62.5"/><g id="R"><path class="cls-1" d="M358.5,67.5h37s33,0,33-29-33-29-33-29L359,10V129"/><line class="cls-1" x1="428.5" y1="129.5" x2="395.5" y2="67.5"/><line class="cls-1" x1="469.5" y1="9.5" x2="469.5" y2="128.5"/></g><polyline id="K" class="cls-1" points="546.5 9.5 470 67.5 549.5 131.5"/><path id="S" class="cls-1" d="M648,21S641,7,617,7s-35,12-35,32c0,39,66,20,66,62,0,13-7,31-34,31s-36-18-36-18"/></svg>